<svg id="color" enable-background="new 0 0 24 24" height="512" viewBox="0 0 24 24" width="512" xmlns="http://www.w3.org/2000/svg"><path d="m22 11.5c0 5.523-4.477 10-10 10s-10-4.477-10-10 4.477-10 10-10 10 4.477 10 10z" fill="#607d8b"/><path d="m12 1.5c-5.523 0-10 4.477-10 10s4.477 10 10 10c.168 0 .335-.004.5-.012v-19.976c-.166-.008-.332-.012-.5-.012z" fill="#546d79"/><path d="m7.5 18c-.414 0-.75-.336-.75-.75 0-.551-.449-1-1-1-.414 0-.75-.336-.75-.75s.336-.75.75-.75c.551 0 1-.449 1-1 0-.414.336-.75.75-.75s.75.336.75.75c0 .551.449 1 1 1 .414 0 .75.336.75.75s-.336.75-.75.75c-.551 0-1 .449-1 1 0 .414-.336.75-.75.75z" fill="#ffc107"/><path d="m7.5 13c-.414 0-.75.336-.75.75 0 .551-.449 1-1 1-.414 0-.75.336-.75.75s.336.75.75.75c.551 0 1 .449 1 1 0 .414.336.75.75.75z" fill="#dea806"/><path d="m6.999 24c-.172 0-.346-.044-.505-.137-.477-.28-.636-.893-.357-1.369 2.163-3.687 5.186-6.824 8.11-9.857 2.778-2.883 5.446-5.651 6.816-8.447-2.489 1.957-5.267 3.273-8.161 4.644-3.691 1.75-7.509 3.559-11.234 6.91-.412.37-1.043.335-1.413-.075-.369-.411-.336-1.043.075-1.413 3.942-3.546 8.072-5.503 11.715-7.23 3.796-1.799 7.382-3.498 10.205-6.689.283-.321.74-.425 1.135-.26s.641.563.612.99c-.318 4.664-4.2 8.692-8.311 12.957-2.842 2.949-5.782 5.999-7.824 9.481-.186.318-.52.495-.863.495z" fill="#00bcd4"/><path d="m12.5 14.461c-2.344 2.478-4.629 5.079-6.363 8.034-.279.476-.12 1.089.357 1.369.159.092.333.136.505.136.343 0 .677-.177.864-.494 1.276-2.176 2.903-4.183 4.637-6.103zm0-7.65c-.151.072-.302.143-.454.215-3.644 1.727-7.773 3.684-11.715 7.23-.411.37-.444 1.002-.075 1.413.198.219.471.331.744.331.238 0 .477-.084.668-.256 3.59-3.23 7.265-5.027 10.831-6.719v-2.214z" fill="#00a4b9"/><path d="m12.5 9c-.414 0-.75-.336-.75-.75 0-.551-.449-1-1-1-.414 0-.75-.336-.75-.75s.336-.75.75-.75c.551 0 1-.449 1-1 0-.414.336-.75.75-.75s.75.336.75.75c0 .551.449 1 1 1 .414 0 .75.336.75.75s-.336.75-.75.75c-.551 0-1 .449-1 1 0 .414-.336.75-.75.75z" fill="#ffc107"/><path d="m12.5 4c-.414 0-.75.336-.75.75 0 .551-.449 1-1 1-.414 0-.75.336-.75.75s.336.75.75.75c.551 0 1 .449 1 1 0 .414.336.75.75.75z" fill="#dea806"/></svg>